<?xml version="1.0" encoding="UTF-8"?>
<svg version="1.1" xmlns="http://www.w3.org/2000/svg" width="180" height="180">
<path d="M0 0 C59.4 0 118.8 0 180 0 C180 59.4 180 118.8 180 180 C120.6 180 61.2 180 0 180 C0 120.6 0 61.2 0 0 Z " fill="#0C0401" transform="translate(0,0)"/>
<path d="M0 0 C9.77882725 7.67916915 15.8954452 15.02909404 17.44921875 27.6484375 C17.89394377 34.60364516 18.08826432 41.1076593 17 48 C15.515 48.495 15.515 48.495 14 49 C13.505 49.99 13.505 49.99 13 51 C12 50 12 50 11.90234375 47.93359375 C11.91394531 47.10988281 11.92554688 46.28617188 11.9375 45.4375 C11.94652344 44.61121094 11.95554687 43.78492188 11.96484375 42.93359375 C11.97644531 42.29550781 11.98804688 41.65742187 12 41 C11.34 41 10.68 41 10 41 C9.01 37.04 9.01 37.04 8 33 C7.68162195 37.35116662 8.40518269 39.91585887 10.2734375 43.80078125 C11.58834285 47.78084421 11.53169908 51.94730943 11.69140625 56.109375 C11.79503343 59.19439445 11.79503343 59.19439445 14 62 C14.66 62 15.32 62 16 62 C16 63.65 16 65.3 16 67 C9.375 70 9.375 70 6 70 C6 68 6 68 7.5 66.375 C7.995 65.92125 8.49 65.4675 9 65 C8.34 65 7.68 65 7 65 C7 65.66 7 66.32 7 67 C6.278125 66.835 5.55625 66.67 4.8125 66.5 C2.13572455 66.02412881 -0.28949487 65.922557 -3 66 C-3.495 67.485 -3.495 67.485 -4 69 C-5.0828125 68.5359375 -5.0828125 68.5359375 -6.1875 68.0625 C-8.80307309 67.07439461 -11.25118982 66.4712246 -14 66 C-13.34 67.32 -12.68 68.64 -12 70 C-13.98 70.495 -13.98 70.495 -16 71 C-16 69.68 -16 68.36 -16 67 C-16.66 67 -17.32 67 -18 67 C-18.33 67.66 -18.66 68.32 -19 69 C-19.30292969 68.00097656 -19.60585937 67.00195312 -19.91796875 65.97265625 C-20.34004373 64.66891352 -20.76328163 63.36554688 -21.1875 62.0625 C-21.38408203 61.40314453 -21.58066406 60.74378906 -21.78320312 60.06445312 C-22.45446521 57.90053349 -22.45446521 57.90053349 -24 55 C-26.56870196 53.94190577 -26.56870196 53.94190577 -29 54 C-32.42410997 60.7597743 -34.62625268 66.40047112 -35 74 C-32.03 74.99 -32.03 74.99 -29 76 C-29 74.68 -29 73.36 -29 72 C-28.01 72.33 -27.02 72.66 -26 73 C-25.67 73.99 -25.34 74.98 -25 76 C-22.61435923 75.42415568 -20.33317216 74.77772405 -18 74 C-17.01 74.495 -17.01 74.495 -16 75 C-15.3671875 77.40625 -15.3671875 77.40625 -14.875 80.5 C-14.70742187 81.5003125 -14.53984375 82.500625 -14.3671875 83.53125 C-13.92531938 87.70549349 -13.92589113 91.80755557 -14 96 C-18.52077862 96.05834421 -23.04145953 96.09371252 -27.5625 96.125 C-28.83931641 96.14175781 -30.11613281 96.15851563 -31.43164062 96.17578125 C-37.65522259 96.20811155 -43.14953928 96.23461206 -49 94 C-48.6875 92.125 -48.6875 92.125 -48 90 C-46.515 89.01 -46.515 89.01 -45 88 C-46.32 88 -47.64 88 -49 88 C-49.495 83.05 -49.495 83.05 -50 78 C-55.98679347 77.26657851 -55.98679347 77.26657851 -62 77 C-62 76.34 -62 75.68 -62 75 C-62.763125 74.896875 -63.52625 74.79375 -64.3125 74.6875 C-67.21867978 73.94405866 -68.19913049 73.34113037 -70 71 C-71.1577506 67.52674819 -71.06866652 64.63932552 -71 61 C-69.02 60.505 -69.02 60.505 -67 60 C-67 56.37 -67 52.74 -67 49 C-67.33 51.64 -67.66 54.28 -68 57 C-72.08188008 50.00249128 -72.34073987 42.37327659 -72.3125 34.5 C-72.32861328 33.60152344 -72.34472656 32.70304687 -72.36132812 31.77734375 C-72.36975555 20.19805572 -67.64729017 12.57816216 -60 4 C-43.4623634 -10.29737837 -18.23521557 -12.89261732 0 0 Z " fill="#5F0301" transform="translate(118,24)"/>
<path d="M0 0 C3.94916275 -0.14902501 6.92018574 0.03859753 10.52734375 1.7265625 C13.95339092 3.2716426 14.37127764 3.1193671 17.71484375 2.1640625 C19.21484375 3.4765625 19.21484375 3.4765625 20.71484375 5.1640625 C22.81474027 6.33980961 22.81474027 6.33980961 24.71484375 7.1640625 C24.38484375 7.8240625 24.05484375 8.4840625 23.71484375 9.1640625 C24.37484375 9.4940625 25.03484375 9.8240625 25.71484375 10.1640625 C25.71484375 9.5040625 25.71484375 8.8440625 25.71484375 8.1640625 C28.18984375 9.1540625 28.18984375 9.1540625 30.71484375 10.1640625 C29.72484375 10.4940625 28.73484375 10.8240625 27.71484375 11.1640625 C27.71484375 11.8240625 27.71484375 12.4840625 27.71484375 13.1640625 C28.37484375 13.4940625 29.03484375 13.8240625 29.71484375 14.1640625 C29.05484375 14.4940625 28.39484375 14.8240625 27.71484375 15.1640625 C29.03484375 15.4940625 30.35484375 15.8240625 31.71484375 16.1640625 C31.71484375 17.1540625 31.71484375 18.1440625 31.71484375 19.1640625 C32.37484375 19.1640625 33.03484375 19.1640625 33.71484375 19.1640625 C34.04484375 18.5040625 34.37484375 17.8440625 34.71484375 17.1640625 C34.71484375 17.8240625 34.71484375 18.4840625 34.71484375 19.1640625 C36.69484375 19.6590625 36.69484375 19.6590625 38.71484375 20.1640625 C38.71484375 20.8240625 38.71484375 21.4840625 38.71484375 22.1640625 C39.37484375 22.1640625 40.03484375 22.1640625 40.71484375 22.1640625 C40.93659308 23.62041621 41.14183073 25.07929206 41.33984375 26.5390625 C41.45585938 27.35117187 41.571875 28.16328125 41.69140625 29 C41.70300781 30.07121094 41.70300781 30.07121094 41.71484375 31.1640625 C41.05484375 31.8240625 40.39484375 32.4840625 39.71484375 33.1640625 C39.07232025 35.23280284 39.07232025 35.23280284 38.71484375 37.1640625 C36.40484375 36.5040625 34.09484375 35.8440625 31.71484375 35.1640625 C31.38484375 36.8140625 31.05484375 38.4640625 30.71484375 40.1640625 C31.84921875 40.4321875 32.98359375 40.7003125 34.15234375 40.9765625 C35.32796875 41.3684375 36.50359375 41.7603125 37.71484375 42.1640625 C38.04484375 43.1540625 38.37484375 44.1440625 38.71484375 45.1640625 C38.21984375 46.1540625 38.21984375 46.1540625 37.71484375 47.1640625 C32.95108191 47.35461297 29.06584399 47.23596738 24.71484375 45.1640625 C23.83984375 43.0390625 23.83984375 43.0390625 23.71484375 41.1640625 C20.74484375 40.6690625 20.74484375 40.6690625 17.71484375 40.1640625 C17.71484375 40.8240625 17.71484375 41.4840625 17.71484375 42.1640625 C15.71484375 43.1640625 13.71484375 44.1640625 11.71484375 45.1640625 C11.03421875 45.5765625 10.35359375 45.9890625 9.65234375 46.4140625 C7.05461776 47.41963385 5.38604621 46.78049384 2.71484375 46.1640625 C1.72484375 46.4940625 0.73484375 46.8240625 -0.28515625 47.1640625 C-2.63704072 46.56612577 -4.9744122 45.90524455 -7.28515625 45.1640625 C-7.61515625 43.8440625 -7.94515625 42.5240625 -8.28515625 41.1640625 C-9.60515625 41.1640625 -10.92515625 41.1640625 -12.28515625 41.1640625 C-11.95515625 42.8140625 -11.62515625 44.4640625 -11.28515625 46.1640625 C-12.25453125 46.2259375 -13.22390625 46.2878125 -14.22265625 46.3515625 C-19.66488014 47.11635567 -25.06772183 49.91495045 -28.92578125 53.828125 C-30.28515625 55.1640625 -30.28515625 55.1640625 -32.28515625 55.1640625 C-31.53515625 49.4140625 -31.53515625 49.4140625 -29.28515625 47.1640625 C-29.04137742 43.80662138 -29.04137742 43.80662138 -29.16015625 40.0390625 C-29.17820313 38.75773437 -29.19625 37.47640625 -29.21484375 36.15625 C-29.23804688 35.16882812 -29.26125 34.18140625 -29.28515625 33.1640625 C-29.94515625 33.1640625 -30.60515625 33.1640625 -31.28515625 33.1640625 C-31.28515625 31.5140625 -31.28515625 29.8640625 -31.28515625 28.1640625 C-30.29515625 28.1640625 -29.30515625 28.1640625 -28.28515625 28.1640625 C-28.28515625 28.8240625 -28.28515625 29.4840625 -28.28515625 30.1640625 C-27.62515625 30.1640625 -26.96515625 30.1640625 -26.28515625 30.1640625 C-26.94515625 29.1740625 -27.60515625 28.1840625 -28.28515625 27.1640625 C-28.28515625 24.1640625 -28.28515625 24.1640625 -27.28515625 21.1640625 C-24.28515625 19.4765625 -24.28515625 19.4765625 -21.28515625 18.1640625 C-20.95515625 17.1740625 -20.62515625 16.1840625 -20.28515625 15.1640625 C-19.29515625 14.8340625 -18.30515625 14.5040625 -17.28515625 14.1640625 C-16.95515625 13.5040625 -16.62515625 12.8440625 -16.28515625 12.1640625 C-15.29515625 11.8340625 -14.30515625 11.5040625 -13.28515625 11.1640625 C-14.60515625 10.5040625 -15.92515625 9.8440625 -17.28515625 9.1640625 C-16.66640625 8.9165625 -16.04765625 8.6690625 -15.41015625 8.4140625 C-12.90218235 6.93878373 -12.36222676 5.81531298 -11.28515625 3.1640625 C-10.95515625 2.5040625 -10.62515625 1.8440625 -10.28515625 1.1640625 C-6.83872085 0.54862761 -3.48570759 0.25025593 0 0 Z " fill="#780603" transform="translate(85.28515625,16.8359375)"/>
<path d="M0 0 C2.784293 2.784293 2.94910069 5.886863 3.625 9.625 C3.7590625 10.33140625 3.893125 11.0378125 4.03125 11.765625 C4.36110025 13.50911918 4.68146056 15.25440389 5 17 C6.60341555 17.33692785 8.20776555 17.66941093 9.8125 18 C10.70582031 18.185625 11.59914063 18.37125 12.51953125 18.5625 C15.53995251 19.09523572 18.37089331 18.99325649 21.4375 18.9375 C24.24765914 18.98680104 26.35981381 19.15514042 29 20 C29 21.65 29 23.3 29 25 C29.66 25 30.32 25 31 25 C31 23.35 31 21.7 31 20 C31.66 20 32.32 20 33 20 C33 21.65 33 23.3 33 25 C33.66 23.35 34.32 21.7 35 20 C35.66 20 36.32 20 37 20 C37.495 20.99 37.495 20.99 38 22 C38.495 20.515 38.495 20.515 39 19 C40.85625 19.0309375 40.85625 19.0309375 42.75 19.0625 C45.6640825 19.06766681 48.20953327 18.93015558 51 18 C51 18.66 51 19.32 51 20 C51.66 20.33 52.32 20.66 53 21 C53.495 19.515 53.495 19.515 54 18 C54.66 18 55.32 18 56 18 C57.32 12.72 58.64 7.44 60 2 C63 2 63 2 66 3 C65.855625 3.82242188 65.71125 4.64484375 65.5625 5.4921875 C64.66472535 10.8913045 63.8780125 15.95873482 64.1875 21.4375 C64.29184988 25.00858481 63.90135517 26.71106312 61.5625 29.4375 C60.2940625 30.7059375 60.2940625 30.7059375 59 32 C58.67 32.99 58.34 33.98 58 35 C57.34 35 56.68 35 56 35 C56 39.29 56 43.58 56 48 C55.67 48 55.34 48 55 48 C55 44.37 55 40.74 55 37 C53.02893917 38.18745867 51.07350469 39.40088058 49.125 40.625 C48.03445312 41.29789063 46.94390625 41.97078125 45.8203125 42.6640625 C42.55185206 45.37118071 41.83107547 46.88617642 41 51 C40.76119698 53.97216792 40.76119698 53.97216792 40.875 56.875 C40.89304688 57.84179688 40.91109375 58.80859375 40.9296875 59.8046875 C40.95289063 60.52914062 40.97609375 61.25359375 41 62 C40.01 62 39.02 62 38 62 C37.505 54.575 37.505 54.575 37 47 C34.03 46.34 31.06 45.68 28 45 C28 46.98 28 48.96 28 51 C27.34 51 26.68 51 26 51 C25.34 49.68 24.68 48.36 24 47 C22.50256881 48.49743119 22.66797307 49.98824239 22.4375 52.0625 C22.293125 53.361875 22.14875 54.66125 22 56 C21.34 56 20.68 56 20 56 C20.04382813 55.3709375 20.08765625 54.741875 20.1328125 54.09375 C20.11933961 49.620749 19.89032013 46.96542622 16.77734375 43.58984375 C13.65611246 41.11531362 10.56979891 38.78489946 7 37 C7 41.62 7 46.24 7 51 C6.34 51 5.68 51 5 51 C4.95101562 49.73542969 4.90203125 48.47085938 4.8515625 47.16796875 C4.7765262 45.50779053 4.70097873 43.84763536 4.625 42.1875 C4.5940625 41.35412109 4.563125 40.52074219 4.53125 39.66210938 C4.49257812 38.85966797 4.45390625 38.05722656 4.4140625 37.23046875 C4.3826416 36.49207764 4.3512207 35.75368652 4.31884766 34.99291992 C4.09165386 32.68650412 4.09165386 32.68650412 2 30 C1.01 29.67 0.02 29.34 -1 29 C-2.57898695 24.26303914 -2.18447895 19.46056587 -2.1875 14.5 C-2.19974609 13.44167969 -2.21199219 12.38335937 -2.22460938 11.29296875 C-2.22750977 9.77123047 -2.22750977 9.77123047 -2.23046875 8.21875 C-2.23457764 7.28998047 -2.23868652 6.36121094 -2.24291992 5.40429688 C-2 3 -2 3 0 0 Z " fill="#540301" transform="translate(60,102)"/>
<path d="M0 0 C0.99 0.33 1.98 0.66 3 1 C3 2.32 3 3.64 3 5 C5.97 5.33 8.94 5.66 12 6 C12 5.67 12 5.34 12 5 C15 5 18 5 21 5 C22.34789347 4.01971384 23.68212715 3.02028865 25 2 C25.99 2 26.98 2 28 2 C28 1.34 28 0.68 28 0 C29.98 0 31.96 0 34 0 C36 3.875 36 3.875 36 5 C38.31 5.66 40.62 6.32 43 7 C43 7.66 43 8.32 43 9 C43.78375 9.268125 44.5675 9.53625 45.375 9.8125 C48 11 48 11 50 14 C50.08203125 16.77734375 50.08203125 16.77734375 49.8125 19.9375 C49.73644531 20.97777344 49.66039063 22.01804687 49.58203125 23.08984375 C48.93919034 26.30404829 48.43223822 27.80063565 46 30 C40.74116634 31.10788014 35.24692794 31.09346048 30.3671875 28.71875 C28.36421414 27.25421034 26.61524245 25.88363621 25 24 C25 23.34 25 22.68 25 22 C24.34 22 23.68 22 23 22 C23 20.02 23 18.04 23 16 C21.35 16 19.7 16 18 16 C18 14.35 18 12.7 18 11 C13.75848181 12.11221499 13.75848181 12.11221499 10.3125 14.6875 C8.84550965 17.10827284 8.84550965 17.10827284 7.8125 20.4375 C5.05526105 25.8569007 0.65910989 28.11363004 -5 30 C-6.9375 30.16796875 -6.9375 30.16796875 -9 30.1875 C-9.680625 30.20167969 -10.36125 30.21585938 -11.0625 30.23046875 C-13 30 -13 30 -16 28 C-18.28427133 24.66938503 -18.09296291 22.18088848 -17.625 18.25 C-17.51414063 17.26515625 -17.40328125 16.2803125 -17.2890625 15.265625 C-17.19367187 14.51796875 -17.09828125 13.7703125 -17 13 C-16.34 13 -15.68 13 -15 13 C-14.773125 12.401875 -14.54625 11.80375 -14.3125 11.1875 C-12.57570471 8.29284118 -11.0816964 7.36964285 -8 6 C-4.1875 5.8125 -4.1875 5.8125 -1 6 C-1.33 4.35 -1.66 2.7 -2 1 C-1.34 0.67 -0.68 0.34 0 0 Z " fill="#310301" transform="translate(75,57)"/>
<path d="M0 0 C2.328125 0.16015625 2.328125 0.16015625 5 1 C6.546875 3.43359375 6.546875 3.43359375 7.75 6.4375 C8.15734375 7.42621094 8.5646875 8.41492188 8.984375 9.43359375 C9.31953125 10.28050781 9.6546875 11.12742187 10 12 C10.33 12.66 10.66 13.32 11 14 C11.66 14 12.32 14 13 14 C13 15.32 13 16.64 13 18 C14.32 17.67 15.64 17.34 17 17 C15.68 15.68 14.36 14.36 13 13 C13.33 12.34 13.66 11.68 14 11 C14.99 11.66 15.98 12.32 17 13 C18.99422795 13.36628677 20.99453311 13.70131344 23 14 C23.66 14.33 24.32 14.66 25 15 C25.33 14.34 25.66 13.68 26 13 C29.375 12.25 29.375 12.25 33 12 C33.99 12.66 34.98 13.32 36 14 C36 13.34 36 12.68 36 12 C36.66 12 37.32 12 38 12 C37.67 12.99 37.34 13.98 37 15 C37.495 15.495 37.495 15.495 38 16 C38.598125 15.649375 39.19625 15.29875 39.8125 14.9375 C42 14 42 14 45 15 C41.51813472 21.13471503 41.51813472 21.13471503 39 23 C34.33910961 24.1923208 29.77661747 24.08235547 25 24 C24.66151348 25.89492006 24.32943089 27.79098466 24 29.6875 C23.814375 30.74324219 23.62875 31.79898438 23.4375 32.88671875 C23.04931926 35.64904062 22.91740024 38.21742043 23 41 C20.36 41.33 17.72 41.66 15 42 C14.34 35.4 13.68 28.8 13 22 C9.95724864 22.60855027 6.99354776 23.22389502 4 24 C3.71125 23.360625 3.4225 22.72125 3.125 22.0625 C2.17176549 19.84793921 2.17176549 19.84793921 0 19 C0 20.32 0 21.64 0 23 C-2.375 23.125 -2.375 23.125 -5 23 C-5.66 22.34 -6.32 21.68 -7 21 C-7 12.90098347 -3.86800104 6.99079088 0 0 Z " fill="#460201" transform="translate(89,77)"/>
<path d="M0 0 C15.01469273 -0.71878848 26.79907384 2.49983318 38.25 12.3125 C47.89362061 21.3421634 50.16302023 30.26894611 50.9140625 43.30859375 C51.01563975 47.67179831 50.67969386 51.69527224 50 56 C49.01 56.33 48.02 56.66 47 57 C46.505 57.99 46.505 57.99 46 59 C45 58 45 58 44.90234375 55.93359375 C44.91394531 55.10988281 44.92554688 54.28617188 44.9375 53.4375 C44.94652344 52.61121094 44.95554688 51.78492188 44.96484375 50.93359375 C44.97644531 50.29550781 44.98804688 49.65742187 45 49 C44.34 49 43.68 49 43 49 C42.34 46.36 41.68 43.72 41 41 C40.68162195 45.35116662 41.40518269 47.91585887 43.2734375 51.80078125 C44.58834285 55.78084421 44.53169908 59.94730943 44.69140625 64.109375 C44.79503343 67.19439445 44.79503343 67.19439445 47 70 C47.66 70 48.32 70 49 70 C49 71.65 49 73.3 49 75 C42.375 78 42.375 78 39 78 C39 76 39 76 40.5 74.375 C40.995 73.92125 41.49 73.4675 42 73 C41.34 73 40.68 73 40 73 C40 73.66 40 74.32 40 75 C39.01 74.67 38.02 74.34 37 74 C38.32 70.37 39.64 66.74 41 63 C40.01 63.495 40.01 63.495 39 64 C39.04640625 63.39671875 39.0928125 62.7934375 39.140625 62.171875 C39.46834155 56.97699408 39.46834155 56.97699408 37.125 52.5 C35.08328039 50.97895603 35.08328039 50.97895603 33 50 C33 49.34 33 48.68 33 48 C34.65 48 36.3 48 38 48 C38 46.35 38 44.7 38 43 C37.21625 42.855625 36.4325 42.71125 35.625 42.5625 C33 42 33 42 31 41 C31 39.02 31 37.04 31 35 C36.75 36.875 36.75 36.875 39 38 C39.144375 37.278125 39.28875 36.55625 39.4375 35.8125 C39.79249056 34.03754721 40.16516015 32.26595491 40.5625 30.5 C41.00904248 27.94832866 41.0738523 25.58483061 41 23 C40.34 23 39.68 23 39 23 C39 22.34 39 21.68 39 21 C36.69 20.67 34.38 20.34 32 20 C32 19.01 32 18.02 32 17 C30.35 16.67 28.7 16.34 27 16 C27.375 14.0625 27.375 14.0625 28 12 C28.66 11.67 29.32 11.34 30 11 C28.68 10.34 27.36 9.68 26 9 C26 9.66 26 10.32 26 11 C24.68 10.34 23.36 9.68 22 9 C22.66 8.67 23.32 8.34 24 8 C22.68 7.34 21.36 6.68 20 6 C20 5.34 20 4.68 20 4 C17.525 3.505 17.525 3.505 15 3 C14.67 3.66 14.34 4.32 14 5 C12.989375 4.525625 11.97875 4.05125 10.9375 3.5625 C7.34077795 2.0063672 3.90731291 1.3987054 0 1 C0 0.67 0 0.34 0 0 Z " fill="#550301" transform="translate(85,16)"/>
<path d="M0 0 C2.475 0.99 2.475 0.99 5 2 C4.855625 2.82242188 4.71125 3.64484375 4.5625 4.4921875 C3.66472535 9.8913045 2.8780125 14.95873482 3.1875 20.4375 C3.29184988 24.00858481 2.90135517 25.71106312 0.5625 28.4375 C-0.283125 29.283125 -1.12875 30.12875 -2 31 C-2.33 31.99 -2.66 32.98 -3 34 C-3.66 34 -4.32 34 -5 34 C-5 38.29 -5 42.58 -5 47 C-5.33 47 -5.66 47 -6 47 C-6 43.37 -6 39.74 -6 36 C-7.97106083 37.18745867 -9.92649531 38.40088058 -11.875 39.625 C-13.51082031 40.63433594 -13.51082031 40.63433594 -15.1796875 41.6640625 C-18.44814794 44.37118071 -19.16892453 45.88617642 -20 50 C-20.23880302 52.97216792 -20.23880302 52.97216792 -20.125 55.875 C-20.09792969 57.32519531 -20.09792969 57.32519531 -20.0703125 58.8046875 C-20.04710938 59.52914062 -20.02390625 60.25359375 -20 61 C-20.99 61 -21.98 61 -23 61 C-23.495 53.575 -23.495 53.575 -24 46 C-25.65 45.34 -27.3 44.68 -29 44 C-27.515 43.505 -27.515 43.505 -26 43 C-25.34 43.33 -24.68 43.66 -24 44 C-23.67 42.35 -23.34 40.7 -23 39 C-21.68 39.33 -20.36 39.66 -19 40 C-18.505 37.03 -18.505 37.03 -18 34 C-18.66 34 -19.32 34 -20 34 C-20.33 32.02 -20.66 30.04 -21 28 C-21.66 28 -22.32 28 -23 28 C-22.67 29.32 -22.34 30.64 -22 32 C-22.99 31.67 -23.98 31.34 -25 31 C-25 29.35 -25 27.7 -25 26 C-23.68 26 -22.36 26 -21 26 C-20.67 23.69 -20.34 21.38 -20 19 C-16.7 18.34 -13.4 17.68 -10 17 C-10 17.66 -10 18.32 -10 19 C-9.34 19.33 -8.68 19.66 -8 20 C-7.67 19.01 -7.34 18.02 -7 17 C-6.34 17 -5.68 17 -5 17 C-4.72285156 15.85660156 -4.44570312 14.71320313 -4.16015625 13.53515625 C-3.79445622 12.04422535 -3.42856071 10.55334239 -3.0625 9.0625 C-2.88009766 8.30775391 -2.69769531 7.55300781 -2.50976562 6.77539062 C-1.11328125 1.11328125 -1.11328125 1.11328125 0 0 Z " fill="#440200" transform="translate(121,103)"/>
<path d="M0 0 C0.99 0.33 1.98 0.66 3 1 C3.33 1.99 3.66 2.98 4 4 C6.38564077 3.42415568 8.66682784 2.77772405 11 2 C11.66 2.33 12.32 2.66 13 3 C13.6328125 5.40625 13.6328125 5.40625 14.125 8.5 C14.29257813 9.5003125 14.46015625 10.500625 14.6328125 11.53125 C15.0705211 15.66619933 15 19.8419482 15 24 C5.76 24 -3.48 24 -13 24 C-13 11.625 -13 11.625 -12 6.3125 C-11.814375 5.29800781 -11.62875 4.28351563 -11.4375 3.23828125 C-11.293125 2.49964844 -11.14875 1.76101562 -11 1 C-8.74865584 4.54394099 -8.94874059 7.02345193 -9.4375 11.125 C-10.09758354 15.20793284 -10.09758354 15.20793284 -9 19 C-7.26831781 16.2752898 -7.26831781 16.2752898 -7.4375 13.1875 C-7.7159375 12.1046875 -7.7159375 12.1046875 -8 11 C-7.72686657 8.65885633 -7.40197001 6.32249342 -7 4 C-4.69 4 -2.38 4 0 4 C0 2.68 0 1.36 0 0 Z " fill="#640502" transform="translate(89,96)"/>
<path d="M0 0 C1.0209375 1.36125 1.0209375 1.36125 2.0625 2.75 C2.60519531 3.21277344 3.14789063 3.67554687 3.70703125 4.15234375 C5.0625 5.75 5.0625 5.75 5.234375 7.80078125 C4.5304401 11.57465446 3.90146492 13.97520065 1.01953125 16.63671875 C-3.47495489 19.66481463 -7.42346971 21.8852838 -12.9375 21.9375 C-13.618125 21.95167969 -14.29875 21.96585938 -15 21.98046875 C-16.9375 21.75 -16.9375 21.75 -19.9375 19.75 C-22.22177133 16.41938503 -22.03046291 13.93088848 -21.5625 10 C-21.45164063 9.01515625 -21.34078125 8.0303125 -21.2265625 7.015625 C-21.13117187 6.26796875 -21.03578125 5.5203125 -20.9375 4.75 C-20.2775 4.75 -19.6175 4.75 -18.9375 4.75 C-18.69 4.13125 -18.4425 3.5125 -18.1875 2.875 C-16.67195271 0.29856961 -15.66693777 -0.11711602 -12.9375 -1.25 C-7.87652214 -2.49261408 -4.26879815 -3.26971774 0 0 Z " fill="#0F0401" transform="translate(78.9375,65.25)"/>
<path d="M0 0 C0 1.65 0 3.3 0 5 C0.66 5 1.32 5 2 5 C2 3.35 2 1.7 2 0 C2.66 0 3.32 0 4 0 C4 1.65 4 3.3 4 5 C4.66 3.35 5.32 1.7 6 0 C6.66 0 7.32 0 8 0 C8.33 0.66 8.66 1.32 9 2 C9.33 1.01 9.66 0.02 10 -1 C10.66 -1 11.32 -1 12 -1 C11.67 1.64 11.34 4.28 11 7 C9.68 7 8.36 7 7 7 C7.33 8.65 7.66 10.3 8 12 C8.33 11.01 8.66 10.02 9 9 C9.66 9 10.32 9 11 9 C11.33 10.98 11.66 12.96 12 15 C12.66 15 13.32 15 14 15 C13.67 16.98 13.34 18.96 13 21 C12.360625 21.103125 11.72125 21.20625 11.0625 21.3125 C10.381875 21.539375 9.70125 21.76625 9 22 C8.67 22.99 8.34 23.98 8 25 C5.03 25 2.06 25 -1 25 C-1 26.98 -1 28.96 -1 31 C-1.66 31 -2.32 31 -3 31 C-3.66 29.68 -4.32 28.36 -5 27 C-6.49743119 28.49743119 -6.33202693 29.98824239 -6.5625 32.0625 C-6.706875 33.361875 -6.85125 34.66125 -7 36 C-7.66 36 -8.32 36 -9 36 C-9.19484938 33.56288386 -9.38115178 31.12562602 -9.5625 28.6875 C-9.61857422 27.99720703 -9.67464844 27.30691406 -9.73242188 26.59570312 C-9.96581505 23.37487726 -10.03224218 21.09672655 -9 18 C-7.68 18.33 -6.36 18.66 -5 19 C-5 18.34 -5 17.68 -5 17 C-5.99 17 -6.98 17 -8 17 C-8 16.34 -8 15.68 -8 15 C-7.44570312 14.84144531 -6.89140625 14.68289062 -6.3203125 14.51953125 C-1.52015703 13.09623213 -1.52015703 13.09623213 1.5 9.3125 C1.665 8.549375 1.83 7.78625 2 7 C1.34 7 0.68 7 0 7 C-0.33 8.65 -0.66 10.3 -1 12 C-1.33 12 -1.66 12 -2 12 C-2 10.35 -2 8.7 -2 7 C-2.92232422 7.10828125 -2.92232422 7.10828125 -3.86328125 7.21875 C-4.67152344 7.3115625 -5.47976562 7.404375 -6.3125 7.5 C-7.11300781 7.5928125 -7.91351563 7.685625 -8.73828125 7.78125 C-11 8 -11 8 -14 8 C-14.33 6.68 -14.66 5.36 -15 4 C-12.525 4.495 -12.525 4.495 -10 5 C-9.814375 3.7934375 -9.814375 3.7934375 -9.625 2.5625 C-9.41875 1.716875 -9.2125 0.87125 -9 0 C-5.93109813 -1.53445094 -3.29905734 -0.54984289 0 0 Z " fill="#600401" transform="translate(89,122)"/>
<path d="M0 0 C2.4375 0.3125 2.4375 0.3125 4.4375 2.3125 C4.4375 3.3025 4.4375 4.2925 4.4375 5.3125 C5.4275 5.3125 6.4175 5.3125 7.4375 5.3125 C7.4375 7.2925 7.4375 9.2725 7.4375 11.3125 C8.0975 11.3125 8.7575 11.3125 9.4375 11.3125 C10.79323748 12.62304623 12.12362831 13.95998503 13.4375 15.3125 C17.68587329 19.22522303 21.7831745 19.03055475 27.3515625 18.94921875 C30.48363936 18.57738471 30.48363936 18.57738471 32.3984375 16.51953125 C33.64305901 14.48712908 34.62350694 12.54973247 35.4375 10.3125 C36.4375 12.3125 36.4375 12.3125 35.94140625 14.44140625 C34.95890943 16.98122168 34.04431358 19.10690067 32.4375 21.3125 C29.56116528 22.45207642 27.5988677 22.36518946 24.4375 22.3125 C23.9425 23.7975 23.9425 23.7975 23.4375 25.3125 C22.715625 25.003125 21.99375 24.69375 21.25 24.375 C18.63442691 23.38689461 16.18631018 22.7837246 13.4375 22.3125 C14.0975 23.6325 14.7575 24.9525 15.4375 26.3125 C14.1175 26.6425 12.7975 26.9725 11.4375 27.3125 C11.4375 25.9925 11.4375 24.6725 11.4375 23.3125 C10.7775 23.3125 10.1175 23.3125 9.4375 23.3125 C9.1075 23.9725 8.7775 24.6325 8.4375 25.3125 C8.13457031 24.31347656 7.83164063 23.31445312 7.51953125 22.28515625 C7.09745627 20.98141352 6.67421837 19.67804688 6.25 18.375 C6.05341797 17.71564453 5.85683594 17.05628906 5.65429688 16.37695312 C4.98303479 14.21303349 4.98303479 14.21303349 3.4375 11.3125 C0.86879804 10.25440577 0.86879804 10.25440577 -1.5625 10.3125 C-1.96082031 11.31152344 -2.35914063 12.31054688 -2.76953125 13.33984375 C-3.30411018 14.64346606 -3.83929814 15.94683874 -4.375 17.25 C-4.63603516 17.90935547 -4.89707031 18.56871094 -5.16601562 19.24804688 C-5.882444 20.97278184 -6.7165925 22.6474412 -7.5625 24.3125 C-8.5525 24.6425 -9.5425 24.9725 -10.5625 25.3125 C-10.2325 23.9925 -9.9025 22.6725 -9.5625 21.3125 C-10.34496094 21.46847656 -11.12742187 21.62445313 -11.93359375 21.78515625 C-12.94550781 21.97980469 -13.95742187 22.17445312 -15 22.375 C-16.51400391 22.67083984 -16.51400391 22.67083984 -18.05859375 22.97265625 C-18.88488281 23.08480469 -19.71117188 23.19695312 -20.5625 23.3125 C-20.8925 22.9825 -21.2225 22.6525 -21.5625 22.3125 C-23.18680109 22.23390479 -24.81205115 22.17447018 -26.4375 22.125 C-29.16796875 21.88671875 -29.16796875 21.88671875 -31.5625 21.3125 C-33.75 18.4375 -33.75 18.4375 -34.5625 15.3125 C-34.2325 14.3225 -33.9025 13.3325 -33.5625 12.3125 C-33.10875 13.116875 -32.655 13.92125 -32.1875 14.75 C-30.81524335 17.40106572 -30.81524335 17.40106572 -28.5625 18.3125 C-21.63888484 19.05431591 -16.12476012 17.64722685 -10.5625 13.3125 C-8.89028387 10.81213874 -7.71267376 8.40685108 -6.59765625 5.6171875 C-5.05267421 2.17741616 -3.81306488 0.46500791 0 0 Z " fill="#680502" transform="translate(90.5625,67.6875)"/>
<path d="M0 0 C0.98484375 0.10183594 1.9696875 0.20367187 2.984375 0.30859375 C3.73203125 0.39238281 4.4796875 0.47617187 5.25 0.5625 C5.25 1.2225 5.25 1.8825 5.25 2.5625 C6.4565625 2.871875 6.4565625 2.871875 7.6875 3.1875 C8.533125 3.64125 9.37875 4.095 10.25 4.5625 C11.0625 7.6875 11.0625 7.6875 11.25 10.5625 C10.63125 10.60375 10.0125 10.645 9.375 10.6875 C8.67375 10.97625 7.9725 11.265 7.25 11.5625 C5.9454344 14.55865946 5.9454344 14.55865946 5.25 17.5625 C4.26 17.5625 3.27 17.5625 2.25 17.5625 C2.25 18.2225 2.25 18.8825 2.25 19.5625 C0.25 18.5625 0.25 18.5625 -1.75 15.5625 C-1.75 17.2125 -1.75 18.8625 -1.75 20.5625 C-4.1875 20.1875 -4.1875 20.1875 -6.75 19.5625 C-7.08 18.9025 -7.41 18.2425 -7.75 17.5625 C-8.74 17.2325 -9.73 16.9025 -10.75 16.5625 C-12.4453125 15.27734375 -12.4453125 15.27734375 -13.75 13.5625 C-14.0945009 9.49589158 -13.32620154 5.66002673 -11.4375 2.0625 C-7.99391478 -0.99846464 -4.37553241 -0.46880704 0 0 Z " fill="#0D0401" transform="translate(112.75,63.4375)"/>
<path d="M0 0 C2.475 0.99 2.475 0.99 5 2 C4.01 2.33 3.02 2.66 2 3 C2 3.66 2 4.32 2 5 C2.66 5.33 3.32 5.66 4 6 C3.01 6.495 3.01 6.495 2 7 C3.32 7.33 4.64 7.66 6 8 C6 8.99 6 9.98 6 11 C6.66 11 7.32 11 8 11 C8.33 10.34 8.66 9.68 9 9 C9 9.66 9 10.32 9 11 C10.32 11.33 11.64 11.66 13 12 C13 12.66 13 13.32 13 14 C13.66 14 14.32 14 15 14 C15.22174933 15.45635371 15.42698698 16.91522956 15.625 18.375 C15.79902344 19.59316406 15.79902344 19.59316406 15.9765625 20.8359375 C15.98429687 21.55007812 15.99203125 22.26421875 16 23 C15.34 23.66 14.68 24.32 14 25 C13.3574765 27.06874034 13.3574765 27.06874034 13 29 C10.69 28.34 8.38 27.68 6 27 C5.34 28.32 4.68 29.64 4 31 C3.67 30.01 3.34 29.02 3 28 C1.68 28.33 0.36 28.66 -1 29 C-0.67 27.35 -0.34 25.7 0 24 C-1.98 24 -3.96 24 -6 24 C-6.33 23.34 -6.66 22.68 -7 22 C-7.99 22 -8.98 22 -10 22 C-8.68 20.68 -7.36 19.36 -6 18 C-5.34 18.33 -4.68 18.66 -4 19 C-3.67 18.34 -3.34 17.68 -3 17 C-2.01979625 15.9805881 -1.02196992 14.97753644 0 14 C0 14.66 0 15.32 0 16 C2.47266765 15.65555119 2.47266765 15.65555119 5 15 C5.33 14.34 5.66 13.68 6 13 C5.34 13 4.68 13 4 13 C4 12.01 4 11.02 4 10 C3.34 10 2.68 10 2 10 C1.67 10.99 1.34 11.98 1 13 C-0.5 12 -0.5 12 -2 10 C-2.27345479 7.28153765 -2.13491285 4.74322801 -2 2 C-1.34 2 -0.68 2 0 2 C0 1.34 0 0.68 0 0 Z " fill="#6F0502" transform="translate(111,25)"/>
<path d="M0 0 C2.359375 0.22265625 2.359375 0.22265625 5 1 C8.66219931 6.33173134 10.65015732 14.55753205 10 21 C8.63671875 22.79296875 8.63671875 22.79296875 7 24 C4.875 23.875 4.875 23.875 3 23 C2.67 22.01 2.34 21.02 2 20 C1.34 19.67 0.68 19.34 0 19 C0 20.32 0 21.64 0 23 C-2.375 23.125 -2.375 23.125 -5 23 C-5.66 22.34 -6.32 21.68 -7 21 C-7 12.90098347 -3.86800104 6.99079088 0 0 Z " fill="#0B0401" transform="translate(89,77)"/>
<path d="M0 0 C0.33 0 0.66 0 1 0 C0.96519531 0.92941406 0.93039063 1.85882813 0.89453125 2.81640625 C0.74051856 9.84965255 1.07220738 14.55885624 4 21 C4.3706873 24.37325441 4.56129954 27.71871516 4.69140625 31.109375 C4.79503343 34.19439445 4.79503343 34.19439445 7 37 C7.66 37 8.32 37 9 37 C9 38.65 9 40.3 9 42 C2.375 45 2.375 45 -1 45 C-1 43 -1 43 0.5 41.375 C0.995 40.92125 1.49 40.4675 2 40 C1.34 40 0.68 40 0 40 C0 40.66 0 41.32 0 42 C-0.99 41.67 -1.98 41.34 -3 41 C-1.68 37.37 -0.36 33.74 1 30 C0.34 30.33 -0.32 30.66 -1 31 C-0.93039063 30.09507813 -0.93039063 30.09507813 -0.859375 29.171875 C-0.53165845 23.97699408 -0.53165845 23.97699408 -2.875 19.5 C-4.91671961 17.97895603 -4.91671961 17.97895603 -7 17 C-7 16.34 -7 15.68 -7 15 C-5.35 15 -3.7 15 -2 15 C-2 13.35 -2 11.7 -2 10 C-3.175625 9.7834375 -3.175625 9.7834375 -4.375 9.5625 C-7 9 -7 9 -9 8 C-9 6.02 -9 4.04 -9 2 C-3.25 3.875 -3.25 3.875 -1 5 C-0.67 3.35 -0.34 1.7 0 0 Z " fill="#580301" transform="translate(125,49)"/>
<path d="M0 0 C0.45375 0.61875 0.9075 1.2375 1.375 1.875 C2.97108919 4.05919833 2.97108919 4.05919833 5 6 C5.30078125 8.4609375 5.30078125 8.4609375 5.3125 11.375 C5.32925781 12.33148438 5.34601562 13.28796875 5.36328125 14.2734375 C4.94760974 17.39320862 4.0094623 18.64016991 2 21 C1.29485154 23.14733927 1.29485154 23.14733927 1 25 C3.97 22.525 3.97 22.525 7 20 C7.66 20.33 8.32 20.66 9 21 C8.67 21.66 8.34 22.32 8 23 C7.34 23 6.68 23 6 23 C6 24.65 6 26.3 6 28 C5.67 27.34 5.34 26.68 5 26 C4.34 26 3.68 26 3 26 C2.34 28.64 1.68 31.28 1 34 C0.67 34 0.34 34 0 34 C-0.33 31.36 -0.66 28.72 -1 26 C-1.33 28.64 -1.66 31.28 -2 34 C-4.88611196 29.0523795 -6 23.66834163 -6 18 C-5.34 18 -4.68 18 -4 18 C-4.061875 16.783125 -4.12375 15.56625 -4.1875 14.3125 C-4.20145905 10.34812919 -3.23532965 8.30828787 -1 5 C-0.29329272 2.30745009 -0.29329272 2.30745009 0 0 Z " fill="#3D0201" transform="translate(52,47)"/>
<path d="M0 0 C0 2.31 0 4.62 0 7 C-1.32 7.33 -2.64 7.66 -4 8 C-4 6.68 -4 5.36 -4 4 C-4.66 4 -5.32 4 -6 4 C-6 5.65 -6 7.3 -6 9 C-6.99 9 -7.98 9 -9 9 C-8.7525 10.175625 -8.7525 10.175625 -8.5 11.375 C-7.63369901 15.92308018 -8.54629245 19.63887735 -10 24 C-10.99 24.33 -11.98 24.66 -13 25 C-12.67 23.68 -12.34 22.36 -12 21 C-12.78246094 21.15597656 -13.56492187 21.31195313 -14.37109375 21.47265625 C-15.38300781 21.66730469 -16.39492187 21.86195312 -17.4375 22.0625 C-18.95150391 22.35833984 -18.95150391 22.35833984 -20.49609375 22.66015625 C-21.32238281 22.77230469 -22.14867188 22.88445312 -23 23 C-23.33 22.67 -23.66 22.34 -24 22 C-25.62430109 21.92140479 -27.24955115 21.86197018 -28.875 21.8125 C-31.60546875 21.57421875 -31.60546875 21.57421875 -34 21 C-36.1875 18.125 -36.1875 18.125 -37 15 C-36.67 14.01 -36.34 13.02 -36 12 C-35.54625 12.804375 -35.0925 13.60875 -34.625 14.4375 C-33.25274335 17.08856572 -33.25274335 17.08856572 -31 18 C-24.07638484 18.74181591 -18.56226012 17.33472685 -13 13 C-11.32778387 10.49963874 -10.15017376 8.09435108 -9.03515625 5.3046875 C-6.94731413 0.65628429 -5.04153767 -0.40877332 0 0 Z " fill="#730603" transform="translate(93,68)"/>
<path d="M0 0 C0.99 0.33 1.98 0.66 3 1 C3 2.32 3 3.64 3 5 C5.97 5.33 8.94 5.66 12 6 C12 5.67 12 5.34 12 5 C15 5 18 5 21 5 C22.34789347 4.01971384 23.68212715 3.02028865 25 2 C25.99 2 26.98 2 28 2 C28 1.34 28 0.68 28 0 C29.98 0 31.96 0 34 0 C36 3.875 36 3.875 36 5 C38.475 5.495 38.475 5.495 41 6 C41 6.33 41 6.66 41 7 C36.72254046 7.07129099 33.13616082 7.07233799 29 6 C28.01 6.33 27.02 6.66 26 7 C25.505 6.505 25.505 6.505 25 6 C24.34 7.98 23.68 9.96 23 12 C22.34 12 21.68 12 21 12 C21 11.34 21 10.68 21 10 C17.04 10 13.08 10 9 10 C9 10.66 9 11.32 9 12 C8.34 12 7.68 12 7 12 C6.67 11.01 6.34 10.02 6 9 C6.33 8.34 6.66 7.68 7 7 C2.05 7 -2.9 7 -8 7 C-8 6.67 -8 6.34 -8 6 C-5.69 6 -3.38 6 -1 6 C-1.33 4.35 -1.66 2.7 -2 1 C-1.34 0.67 -0.68 0.34 0 0 Z " fill="#540301" transform="translate(75,57)"/>
<path d="M0 0 C0.66 1.32 1.32 2.64 2 4 C2.66 4 3.32 4 4 4 C4 4.66 4 5.32 4 6 C3.01 6 2.02 6 1 6 C1.66 6.66 2.32 7.32 3 8 C4.32 8 5.64 8 7 8 C7 6.35 7 4.7 7 3 C7.33 3 7.66 3 8 3 C8.6976874 11.14684214 9.28162626 18.88303369 8 27 C7.01 27.33 6.02 27.66 5 28 C4.67 28.66 4.34 29.32 4 30 C3 29 3 29 2.90234375 26.93359375 C2.91974609 25.69802734 2.91974609 25.69802734 2.9375 24.4375 C2.94652344 23.61121094 2.95554688 22.78492187 2.96484375 21.93359375 C2.97644531 21.29550781 2.98804688 20.65742187 3 20 C2.34 20 1.68 20 1 20 C-1.5964646 12.5316744 -2.36809386 7.60282766 0 0 Z " fill="#350200" transform="translate(127,45)"/>
<path d="M0 0 C0.33 1.32 0.66 2.64 1 4 C8.91660492 4.95339758 16.78459835 5.10980006 24.75 5.125 C25.73170166 5.12951172 26.71340332 5.13402344 27.72485352 5.13867188 C33.24359701 5.12746156 38.54085705 4.81499053 44 4 C44.33 3.01 44.66 2.02 45 1 C45.495 1.99 45.495 1.99 46 3 C47.32 2.34 48.64 1.68 50 1 C49.34 2.98 48.68 4.96 48 7 C47.34 7 46.68 7 46 7 C45.67 7.66 45.34 8.32 45 9 C42 8 42 8 41 7 C40.34 8.32 39.68 9.64 39 11 C38.34 11 37.68 11 37 11 C37 9.68 37 8.36 37 7 C36.38125 7.185625 35.7625 7.37125 35.125 7.5625 C33 8 33 8 31 7 C30.67 8.98 30.34 10.96 30 13 C29.67 13 29.34 13 29 13 C29 11.35 29 9.7 29 8 C28.34 8 27.68 8 27 8 C27 9.65 27 11.3 27 13 C26.34 13 25.68 13 25 13 C25 11.35 25 9.7 25 8 C24.34 8 23.68 8 23 8 C23 9.65 23 11.3 23 13 C22.34 13 21.68 13 21 13 C21 11.35 21 9.7 21 8 C20.01 8 19.02 8 18 8 C17.67 9.32 17.34 10.64 17 12 C17 10.35 17 8.7 17 7 C13.7 7.66 10.4 8.32 7 9 C7 8.34 7 7.68 7 7 C5.9275 7.04125 4.855 7.0825 3.75 7.125 C0.34252515 7.0114175 -1.20739631 6.78726636 -4 5 C-3.67 4.34 -3.34 3.68 -3 3 C-2.01 3.33 -1.02 3.66 0 4 C0 2.68 0 1.36 0 0 Z " fill="#1F0301" transform="translate(68,114)"/>
<path d="M0 0 C3 1.1875 3 1.1875 5 3.1875 C6.2684375 3.435 6.2684375 3.435 7.5625 3.6875 C8.7690625 3.935 8.7690625 3.935 10 4.1875 C10.33 4.8475 10.66 5.5075 11 6.1875 C14.3 5.8575 17.6 5.5275 21 5.1875 C20.67 6.1775 20.34 7.1675 20 8.1875 C19.93334624 9.58189664 19.91461801 10.97919875 19.9375 12.375 C19.958125 13.633125 19.97875 14.89125 20 16.1875 C19.34 16.1875 18.68 16.1875 18 16.1875 C17.67 16.8475 17.34 17.5075 17 18.1875 C16.34 18.1875 15.68 18.1875 15 18.1875 C14.67 15.5475 14.34 12.9075 14 10.1875 C12.56274129 10.01876522 11.12518162 9.85259263 9.6875 9.6875 C8.88699219 9.5946875 8.08648437 9.501875 7.26171875 9.40625 C4.88103445 9.13936537 4.88103445 9.13936537 2 9.1875 C2 8.5275 2 7.8675 2 7.1875 C1.236875 7.084375 0.47375 6.98125 -0.3125 6.875 C-3.17059424 6.14385961 -4.15742885 5.41798087 -6 3.1875 C-5.67 2.1975 -5.34 1.2075 -5 0.1875 C-3 -0.8125 -3 -0.8125 0 0 Z " fill="#440201" transform="translate(54,91.8125)"/>
<path d="M0 0 C0.12375 0.639375 0.2475 1.27875 0.375 1.9375 C0.58125 2.618125 0.7875 3.29875 1 4 C1.66 4.33 2.32 4.66 3 5 C1.68 5.33 0.36 5.66 -1 6 C-0.87625 7.0725 -0.7525 8.145 -0.625 9.25 C-0.74875 10.4875 -0.8725 11.725 -1 13 C-2.98689731 14.35278115 -4.98745218 15.68568305 -7 17 C-8.42442672 22.18898304 -8.10936728 27.64100333 -8 33 C-8.99 33 -9.98 33 -11 33 C-11.33 28.05 -11.66 23.1 -12 18 C-14.475 17.01 -14.475 17.01 -17 16 C-16.01 15.67 -15.02 15.34 -14 15 C-13.34 15.33 -12.68 15.66 -12 16 C-11.67 14.35 -11.34 12.7 -11 11 C-9.68 11.33 -8.36 11.66 -7 12 C-7.04125 10.88625 -7.0825 9.7725 -7.125 8.625 C-7 5 -7 5 -5 3 C-4.67 4.32 -4.34 5.64 -4 7 C-3.34 7 -2.68 7 -2 7 C-2 6.01 -2 5.02 -2 4 C-2.66 4 -3.32 4 -4 4 C-4 3.34 -4 2.68 -4 2 C-2.68 1.34 -1.36 0.68 0 0 Z " fill="#580301" transform="translate(109,131)"/>
<path d="M0 0 C2.475 0.99 2.475 0.99 5 2 C4.855625 2.82242188 4.71125 3.64484375 4.5625 4.4921875 C3.66472535 9.8913045 2.8780125 14.95873482 3.1875 20.4375 C3.28510143 23.97411666 2.91565315 25.71275806 0.625 28.4375 C-0.24125 29.283125 -1.1075 30.12875 -2 31 C-2.99 32.485 -2.99 32.485 -4 34 C-5.28987148 29.51159585 -4.65821583 25.66935909 -3.75 21.1875 C-3.61231201 20.47916016 -3.47462402 19.77082031 -3.33276367 19.04101562 C-2.33781067 14.13340854 -1.01192384 9.59868307 1 5 C0.34 5 -0.32 5 -1 5 C-0.67 3.35 -0.34 1.7 0 0 Z " fill="#340200" transform="translate(121,103)"/>
<path d="M0 0 C2.125 1.9375 2.125 1.9375 4 5 C3.75870921 8.13678022 2.96321989 11.0127167 2 14 C2.66 14.33 3.32 14.66 4 15 C3.071875 15.12375 3.071875 15.12375 2.125 15.25 C-0.17381462 15.80607909 -0.17381462 15.80607909 -1.1875 18 C-1.455625 18.66 -1.72375 19.32 -2 20 C-2.33 20.33 -2.66 20.66 -3 21 C-3 21.969375 -3 22.93875 -3 23.9375 C-3 27 -3 27 -4 29 C-4.66 29 -5.32 29 -6 29 C-6.65636763 7.60727729 -6.65636763 7.60727729 0 0 Z " fill="#560301" transform="translate(52,36)"/>
<path d="M0 0 C4.08912308 4.08912308 3 11.5384997 3 17 C3.29185063 19.0064731 3.61169599 21.00994193 4 23 C3.34 23 2.68 23 2 23 C1.34 22.01 0.68 21.02 0 20 C-0.33 21.65 -0.66 23.3 -1 25 C-0.34 25 0.32 25 1 25 C1.66 26.65 2.32 28.3 3 30 C1.0625 29.6875 1.0625 29.6875 -1 29 C-2.57898695 24.26303914 -2.18447895 19.46056587 -2.1875 14.5 C-2.19974609 13.44167969 -2.21199219 12.38335937 -2.22460938 11.29296875 C-2.22750977 9.77123047 -2.22750977 9.77123047 -2.23046875 8.21875 C-2.23457764 7.28998047 -2.23868652 6.36121094 -2.24291992 5.40429688 C-2 3 -2 3 0 0 Z " fill="#390301" transform="translate(60,102)"/>
<path d="M0 0 C0.99 0.33 1.98 0.66 3 1 C2.34 1 1.68 1 1 1 C1.33 2.65 1.66 4.3 2 6 C1.030625 6.061875 0.06125 6.12375 -0.9375 6.1875 C-6.37972389 6.95229317 -11.78256558 9.75088795 -15.640625 13.6640625 C-17 15 -17 15 -19 15 C-18.56802365 10.2482602 -17.67230705 8.07999946 -14 5 C-14 5.99 -14 6.98 -14 8 C-13.01 8 -12.02 8 -11 8 C-10.87625 7.360625 -10.7525 6.72125 -10.625 6.0625 C-10.41875 5.381875 -10.2125 4.70125 -10 4 C-8 3 -8 3 -6.125 3.5 C-3.71114731 4.06796534 -2.33160767 3.74944532 0 3 C0 2.01 0 1.02 0 0 Z " fill="#680502" transform="translate(72,57)"/>
<path d="M0 0 C0.99 0 1.98 0 3 0 C5.125 6.75 5.125 6.75 4 9 C4.66 9 5.32 9 6 9 C6 9.66 6 10.32 6 11 C10.06024321 8.96197865 10.06024321 8.96197865 12 5 C14 6 14 6 15 8 C12.57799944 10.65266728 10.75511984 11.84784243 7.0625 12.16796875 C6.0415625 12.17763672 6.0415625 12.17763672 5 12.1875 C4.319375 12.20167969 3.63875 12.21585938 2.9375 12.23046875 C1 12 1 12 -2 10 C-2.6875 7.875 -2.6875 7.875 -3 6 C-2.01 6 -1.02 6 0 6 C0 4.02 0 2.04 0 0 Z " fill="#310301" transform="translate(61,75)"/>
<path d="M0 0 C0.99 0.33 1.98 0.66 3 1 C2.649375 1.99 2.29875 2.98 1.9375 4 C0.69066308 8.26365913 1.2388784 11.66160688 2 16 C0.6078125 15.7215625 0.6078125 15.7215625 -0.8125 15.4375 C-4.01343771 14.75876119 -4.01343771 14.75876119 -7 16 C-6.67 13.69 -6.34 11.38 -6 9 C-5.34 9 -4.68 9 -4 9 C-4 8.34 -4 7.68 -4 7 C-2.68 6.34 -1.36 5.68 0 5 C0 3.35 0 1.7 0 0 Z " fill="#6E0502" transform="translate(92,48)"/>
<path d="M0 0 C1.58294782 -0.05437607 3.16644256 -0.09296271 4.75 -0.125 C5.63171875 -0.14820312 6.5134375 -0.17140625 7.421875 -0.1953125 C10.1135858 0.00860498 11.69904974 0.63448279 14 2 C14 3.65 14 5.3 14 7 C10.68357406 7 8.15128139 6.91221303 5 6 C4.34 5.01 3.68 4.02 3 3 C2.01 3 1.02 3 0 3 C0 2.01 0 1.02 0 0 Z " fill="#450201" transform="translate(59,89)"/>
<path d="M0 0 C2.97 0.495 2.97 0.495 6 1 C5.7834375 1.81791016 5.7834375 1.81791016 5.5625 2.65234375 C4.18471403 8.24959924 3.81712563 13.23945745 4 19 C3.01 19 2.02 19 1 19 C0.67 14.05 0.34 9.1 0 4 C-2.475 3.01 -2.475 3.01 -5 2 C-4.01 1.67 -3.02 1.34 -2 1 C-1.34 1.33 -0.68 1.66 0 2 C0 1.34 0 0.68 0 0 Z " fill="#440301" transform="translate(97,145)"/>
<path d="M0 0 C1.32 0 2.64 0 4 0 C3.855625 0.88042969 3.71125 1.76085937 3.5625 2.66796875 C3.376875 3.82941406 3.19125 4.99085937 3 6.1875 C2.814375 7.33605469 2.62875 8.48460938 2.4375 9.66796875 C2.06510523 12.50415393 1.91403979 15.14719564 2 18 C0.35 18.33 -1.3 18.66 -3 19 C-3.33 16.36 -3.66 13.72 -4 11 C-2.68 11.33 -1.36 11.66 0 12 C0.06978435 9.48776344 0.0831468 7.31411014 -0.5625 4.875 C-1 3 -1 3 0 0 Z " fill="#370300" transform="translate(110,100)"/>
<path d="M0 0 C1.65 0.33 3.3 0.66 5 1 C4.01 4.96 3.02 8.92 2 13 C-0.97 12.505 -0.97 12.505 -4 12 C-4.33 10.35 -4.66 8.7 -5 7 C-4.34 7 -3.68 7 -3 7 C-2.67 6.34 -2.34 5.68 -2 5 C-1.67 5.33 -1.34 5.66 -1 6 C-0.67 4.02 -0.34 2.04 0 0 Z " fill="#6F0502" transform="translate(82,50)"/>
<path d="M0 0 C8.50922528 -0.40735653 15.8390222 0.56907044 24 3 C23.67 4.32 23.34 5.64 23 7 C22.01 6.67 21.02 6.34 20 6 C20 5.34 20 4.68 20 4 C17.525 3.505 17.525 3.505 15 3 C14.67 3.66 14.34 4.32 14 5 C12.989375 4.525625 11.97875 4.05125 10.9375 3.5625 C7.34077795 2.0063672 3.90731291 1.3987054 0 1 C0 0.67 0 0.34 0 0 Z " fill="#440301" transform="translate(85,16)"/>
<path d="M0 0 C0 0.66 0 1.32 0 2 C-0.66 2 -1.32 2 -2 2 C-2 3.98 -2 5.96 -2 8 C-2.66 8 -3.32 8 -4 8 C-4.66 6.68 -5.32 5.36 -6 4 C-7.49743119 5.49743119 -7.33202693 6.98824239 -7.5625 9.0625 C-7.7790625 11.0115625 -7.7790625 11.0115625 -8 13 C-8.66 13 -9.32 13 -10 13 C-10.08121924 11.39667209 -10.13929134 9.79215974 -10.1875 8.1875 C-10.22230469 7.29417969 -10.25710937 6.40085938 -10.29296875 5.48046875 C-10 3 -10 3 -8.71875 1.1875 C-5.96006727 -0.71849898 -3.2428478 -0.18355742 0 0 Z " fill="#4C0301" transform="translate(90,145)"/>
<path d="M0 0 C0.66 0 1.32 0 2 0 C2.08142927 1.7492214 2.13938541 3.49954542 2.1875 5.25 C2.22230469 6.22453125 2.25710937 7.1990625 2.29296875 8.203125 C1.95419691 11.4372668 1.11993995 12.59774359 -1 15 C-1.66 15.99 -2.32 16.98 -3 18 C-3.33 16.35 -3.66 14.7 -4 13 C-3.34 13 -2.68 13 -2 13 C-2.50603992 10.83125748 -2.99983813 9.00032373 -4 7 C-3.71887936 4.99199544 -3.38932033 2.98985949 -3 1 C-2.34 1.33 -1.68 1.66 -1 2 C-1.020625 2.804375 -1.04125 3.60875 -1.0625 4.4375 C-1.29633621 6.93354885 -1.29633621 6.93354885 0 8 C0 5.36 0 2.72 0 0 Z " fill="#2E0301" transform="translate(55,53)"/>
<path d="M0 0 C0.66 0.33 1.32 0.66 2 1 C1.34 4.63 0.68 8.26 0 12 C-0.66 12 -1.32 12 -2 12 C-2 13.98 -2 15.96 -2 18 C-2.33 18 -2.66 18 -3 18 C-3.37634203 11.19796625 -2.77471079 6.24309927 0 0 Z " fill="#3E0301" transform="translate(49,40)"/>
<path d="M0 0 C1.65 0 3.3 0 5 0 C5 2.31 5 4.62 5 7 C3.68 7.33 2.36 7.66 1 8 C1 6.35 1 4.7 1 3 C0.34 3 -0.32 3 -1 3 C-0.67 2.01 -0.34 1.02 0 0 Z " fill="#7E0805" transform="translate(88,68)"/>
<path d="M0 0 C1.75 0.125 1.75 0.125 4 1 C6.25 4.0625 6.25 4.0625 8 7 C7.01 7.33 6.02 7.66 5 8 C4.34 6.68 3.68 5.36 3 4 C1.35 4.66 -0.3 5.32 -2 6 C-1.34 4.02 -0.68 2.04 0 0 Z " fill="#5E0301" transform="translate(118,92)"/>
<path d="M0 0 C0.33 0 0.66 0 1 0 C1 1.65 1 3.3 1 5 C2.32 5.66 3.64 6.32 5 7 C-1.625 8 -1.625 8 -5 8 C-5.33 6.68 -5.66 5.36 -6 4 C-3.525 4.495 -3.525 4.495 -1 5 C-0.67 3.35 -0.34 1.7 0 0 Z " fill="#610401" transform="translate(80,122)"/>
<path d="M0 0 C0.99 0 1.98 0 3 0 C3.79953138 3.28696233 4.09658936 4.71023192 3 8 C1.68 8 0.36 8 -1 8 C-1.04241723 5.66705225 -1.04092937 3.33297433 -1 1 C-0.67 0.67 -0.34 0.34 0 0 Z " fill="#7D0805" transform="translate(86,112)"/>
<path d="M0 0 C0.99 0.33 1.98 0.66 3 1 C3.33 2.65 3.66 4.3 4 6 C2.35 6.66 0.7 7.32 -1 8 C-1 7.34 -1 6.68 -1 6 C-2.32 5.34 -3.64 4.68 -5 4 C-3.35 4 -1.7 4 0 4 C0 2.68 0 1.36 0 0 Z " fill="#4D0301" transform="translate(89,96)"/>
<path d="M0 0 C2.97 0.33 5.94 0.66 9 1 C9 4 9 4 8 6 C7.34 6.66 6.68 7.32 6 8 C5.34 7.01 4.68 6.02 4 5 C3.34 5 2.68 5 2 5 C2 4.01 2 3.02 2 2 C1.34 2 0.68 2 0 2 C0 1.34 0 0.68 0 0 Z " fill="#390301" transform="translate(64,119)"/>
<path d="M0 0 C0.99 0 1.98 0 3 0 C3 2.64 3 5.28 3 8 C1.68 8 0.36 8 -1 8 C-1.125 2.25 -1.125 2.25 0 0 Z " fill="#790704" transform="translate(92,112)"/>
<path d="M0 0 C1.10844919 3.32534757 0.84454356 5.62182575 0 9 C-0.33 8.01 -0.66 7.02 -1 6 C-2.65 7.32 -4.3 8.64 -6 10 C-5.67 8.02 -5.34 6.04 -5 4 C-3.35 3.67 -1.7 3.34 0 3 C0 2.01 0 1.02 0 0 Z " fill="#2B0301" transform="translate(124,71)"/>
<path d="M0 0 C1.4540625 0.61875 1.4540625 0.61875 2.9375 1.25 C3.2675 2.24 3.5975 3.23 3.9375 4.25 C2.9475 4.25 1.9575 4.25 0.9375 4.25 C0.6075 4.91 0.2775 5.57 -0.0625 6.25 C-0.51625 5.775625 -0.97 5.30125 -1.4375 4.8125 C-2.99508204 3.15972192 -2.99508204 3.15972192 -5.0625 2.25 C-5.0625 1.59 -5.0625 0.93 -5.0625 0.25 C-3.0625 -0.75 -3.0625 -0.75 0 0 Z " fill="#350201" transform="translate(112.0625,90.75)"/>
<path d="M0 0 C0.66 0.66 1.32 1.32 2 2 C1.625 5.125 1.625 5.125 1 8 C0.34 8 -0.32 8 -1 8 C-1 7.34 -1 6.68 -1 6 C-2.32 5.67 -3.64 5.34 -5 5 C-3.68 4.67 -2.36 4.34 -1 4 C-0.67 2.68 -0.34 1.36 0 0 Z " fill="#450200" transform="translate(97,61)"/>
<path d="M0 0 C2.475 0.99 2.475 0.99 5 2 C4.34 3.65 3.68 5.3 3 7 C2.34 7 1.68 7 1 7 C1 6.34 1 5.68 1 5 C0.34 5 -0.32 5 -1 5 C-0.67 3.35 -0.34 1.7 0 0 Z " fill="#2A0301" transform="translate(121,103)"/>
<path d="M0 0 C0.33 0.66 0.66 1.32 1 2 C0.22265625 4.1640625 0.22265625 4.1640625 -0.9375 6.625 C-1.31777344 7.44226563 -1.69804688 8.25953125 -2.08984375 9.1015625 C-2.39019531 9.72804688 -2.69054687 10.35453125 -3 11 C-3.99 10.34 -4.98 9.68 -6 9 C-4.02 6.03 -2.04 3.06 0 0 Z " fill="#760603" transform="translate(126,78)"/>
<path d="M0 0 C0.99 0 1.98 0 3 0 C2.88637738 1.4800841 2.75877092 2.95910074 2.625 4.4375 C2.52058594 5.67306641 2.52058594 5.67306641 2.4140625 6.93359375 C2.27742188 7.61550781 2.14078125 8.29742187 2 9 C1.01 9.495 1.01 9.495 0 10 C-0.95024979 6.30458414 -0.95024979 3.69541586 0 0 Z " fill="#580301" transform="translate(95,73)"/>
<path d="M0 0 C1.65 0 3.3 0 5 0 C5 1.65 5 3.3 5 5 C3 5 1 5 -1 5 C-0.67 3.35 -0.34 1.7 0 0 Z " fill="#350201" transform="translate(82,129)"/>
<path d="M0 0 C0.66 0 1.32 0 2 0 C1.67 2.64 1.34 5.28 1 8 C-0.65 8.33 -2.3 8.66 -4 9 C-4 8.34 -4 7.68 -4 7 C-3.34 6.67 -2.68 6.34 -2 6 C-1.27306096 4.02111039 -0.60183749 2.02045442 0 0 Z " fill="#600301" transform="translate(99,121)"/>
<path d="M0 0 C0 1.98 0 3.96 0 6 C-1.98 6.99 -1.98 6.99 -4 8 C-3.74438677 5.6568787 -3.40729228 3.32156597 -3 1 C-1 0 -1 0 0 0 Z " fill="#620401" transform="translate(128,72)"/>
<path d="M0 0 C0.66 0 1.32 0 2 0 C1.55123384 1.64846769 1.09069512 3.29373455 0.625 4.9375 C0.36976562 5.85402344 0.11453125 6.77054687 -0.1484375 7.71484375 C-1 10 -1 10 -3 11 C-2.69217504 9.35328588 -2.37860766 7.70764424 -2.0625 6.0625 C-1.88847656 5.14597656 -1.71445313 4.22945313 -1.53515625 3.28515625 C-1 1 -1 1 0 0 Z " fill="#420301" transform="translate(120,108)"/>
<path d="M0 0 C0.33 0 0.66 0 1 0 C1 3.3 1 6.6 1 10 C0.01 9.01 -0.98 8.02 -2 7 C-1.34 4.69 -0.68 2.38 0 0 Z " fill="#7B0804" transform="translate(83,102)"/>
<path d="M0 0 C0.66 0 1.32 0 2 0 C2.33 2.64 2.66 5.28 3 8 C2.01 7.67 1.02 7.34 0 7 C0 4.69 0 2.38 0 0 Z " fill="#6D0402" transform="translate(96,103)"/>
<path d="M0 0 C0.99 0 1.98 0 3 0 C3 1.98 3 3.96 3 6 C2.01 6 1.02 6 0 6 C0 4.02 0 2.04 0 0 Z " fill="#790604" transform="translate(97,113)"/>
<path d="M0 0 C1.32 1.32 2.64 2.64 4 4 C3.01 5.32 2.02 6.64 1 8 C-1.125 3.375 -1.125 3.375 0 0 Z " fill="#4B0301" transform="translate(79,108)"/>
<path d="M0 0 C1.65 1.32 3.3 2.64 5 4 C4.67 4.99 4.34 5.98 4 7 C3.34 7 2.68 7 2 7 C2 6.01 2 5.02 2 4 C1.34 4 0.68 4 0 4 C0 2.68 0 1.36 0 0 Z " fill="#6F0502" transform="translate(53,87)"/>
<path d="M0 0 C1.9375 0.3125 1.9375 0.3125 4 1 C4.33 1.99 4.66 2.98 5 4 C2.03 3.505 2.03 3.505 -1 3 C-0.67 2.01 -0.34 1.02 0 0 Z " fill="#4E0201" transform="translate(60,95)"/>
<path d="M0 0 C1 3 1 3 -0.4375 6.1875 C-1.2109375 7.5796875 -1.2109375 7.5796875 -2 9 C-2.66 7.68 -3.32 6.36 -4 5 C-3.34 4.67 -2.68 4.34 -2 4 C-2 3.01 -2 2.02 -2 1 C-1.34 0.67 -0.68 0.34 0 0 Z " fill="#1A0401" transform="translate(55,62)"/>
</svg>
