<?xml version="1.0" encoding="UTF-8"?>
<svg version="1.1" xmlns="http://www.w3.org/2000/svg" width="32" height="32">
<path d="M0 0 C4.03450226 3.60529989 5.84364879 7.70141508 7.9375 12.625 C8.31777344 13.48351563 8.69804687 14.34203125 9.08984375 15.2265625 C10.30936958 18.67720241 9.74410628 21.08834171 8.9375 24.625 C7.96789941 26.63991307 6.97192432 28.64258573 5.9375 30.625 C3.68809705 30.70619503 1.43785129 30.76427819 -0.8125 30.8125 C-2.06546875 30.84730469 -3.3184375 30.88210937 -4.609375 30.91796875 C-8.20359357 30.61302939 -9.50975126 30.08105371 -12.0625 27.625 C-12.3925 28.615 -12.7225 29.605 -13.0625 30.625 C-14.7125 30.625 -16.3625 30.625 -18.0625 30.625 C-20.61535159 22.96644522 -20.03686395 12.19458915 -17.0625 4.625 C-12.53292965 -1.26344145 -6.91548552 -3.10491186 0 0 Z " fill="#320C03" transform="translate(22.0625,1.375)"/>
<path d="M0 0 C4.56 0.48 4.56 0.48 6.375 2.625 C7.40439894 6.53671598 6.80366739 10.39266522 5 14 C4.34 14 3.68 14 3 14 C3 14.66 3 15.32 3 16 C2.34 16.33 1.68 16.66 1 17 C1.66 17.33 2.32 17.66 3 18 C3 19.32 3 20.64 3 22 C-5.23992322 22.621881 -5.23992322 22.621881 -8.0625 20.3125 C-9.12196863 17.69914404 -9.23290982 15.79491785 -9 13 C-8.01 13.495 -8.01 13.495 -7 14 C-6.34 12.68 -5.68 11.36 -5 10 C-4.01 10 -3.02 10 -2 10 C-2.226875 9.278125 -2.45375 8.55625 -2.6875 7.8125 C-3.08398299 4.24415308 -2.04377787 2.86128901 0 0 Z " fill="#5D1B07" transform="translate(17,8)"/>
<path d="M0 0 C3.7212234 5.5818351 7 11.13205303 7 18 C5.9177168 21.14113823 4.55078394 24.06482524 3 27 C0.70858714 27.05384521 -1.58318188 27.09272087 -3.875 27.125 C-5.15117187 27.14820312 -6.42734375 27.17140625 -7.7421875 27.1953125 C-11 27 -11 27 -13 25 C-10.36 25 -7.72 25 -5 25 C-5 23.68 -5 22.36 -5 21 C-5.99 20.67 -6.98 20.34 -8 20 C-7.01 19.67 -6.02 19.34 -5 19 C-5 18.34 -5 17.68 -5 17 C-4.34 17 -3.68 17 -3 17 C-2.95101563 16.22914062 -2.90203125 15.45828125 -2.8515625 14.6640625 C-2.77679688 13.66117188 -2.70203125 12.65828125 -2.625 11.625 C-2.52058594 10.12839844 -2.52058594 10.12839844 -2.4140625 8.6015625 C-2 6 -2 6 0 4 C0 2.68 0 1.36 0 0 Z " fill="#070100" transform="translate(25,5)"/>
<path d="M0 0 C3.07662098 0.96144406 4.80707568 1.58213684 7 3.9375 C7.875 7 7.875 7 8 9.9375 C7.34 10.5975 6.68 11.2575 6 11.9375 C5.34 11.9375 4.68 11.9375 4 11.9375 C3.67 10.9475 3.34 9.9575 3 8.9375 C-0.63 8.9375 -4.26 8.9375 -8 8.9375 C-6.92014986 3.53824928 -6.06935626 -0.12644492 0 0 Z " fill="#210501" transform="translate(18,0.0625)"/>
<path d="M0 0 C0.66 0 1.32 0 2 0 C1.22225866 5.05531868 0.14051606 10.01716284 -1 15 C-2.32 15 -3.64 15 -5 15 C-5 15.66 -5 16.32 -5 17 C-2.525 17.99 -2.525 17.99 0 19 C-2.32303176 20.49337756 -3.4306531 21.11386938 -6.1875 20.5625 C-8 19 -8 19 -8.75 15.375 C-8.8325 14.26125 -8.915 13.1475 -9 12 C-8.01 12.495 -8.01 12.495 -7 13 C-6.34 11.68 -5.68 10.36 -5 9 C-4.01 9 -3.02 9 -2 9 C-2.3403125 7.88625 -2.3403125 7.88625 -2.6875 6.75 C-3 4 -3 4 -1.6875 1.6875 C-1.130625 1.130625 -0.57375 0.57375 0 0 Z " fill="#7F4321" transform="translate(17,9)"/>
<path d="M0 0 C0.33 0 0.66 0 1 0 C1 1.98 1 3.96 1 6 C0.34 6 -0.32 6 -1 6 C-0.67 10.95 -0.34 15.9 0 21 C-1.65 21 -3.3 21 -5 21 C-5.33 18.69 -5.66 16.38 -6 14 C-5.34 14 -4.68 14 -4 14 C-3.94392578 12.98679687 -3.94392578 12.98679687 -3.88671875 11.953125 C-3.78810547 10.61507813 -3.78810547 10.61507813 -3.6875 9.25 C-3.62949219 8.36828125 -3.57148437 7.4865625 -3.51171875 6.578125 C-2.93320407 3.66347087 -1.98342659 2.18227912 0 0 Z " fill="#1D0000" transform="translate(9,11)"/>
<path d="M0 0 C4.56 0.48 4.56 0.48 6.375 2.625 C7.26273592 5.99839648 6.75010146 8.62454341 6 12 C5.34 12.66 4.68 13.32 4 14 C4 12.68 4 11.36 4 10 C2.68 10 1.36 10 0 10 C0.66 7.03 1.32 4.06 2 1 C1.34 0.67 0.68 0.34 0 0 Z " fill="#471A09" transform="translate(17,8)"/>
<path d="M0 0 C0.66 0.33 1.32 0.66 2 1 C2 1.66 2 2.32 2 3 C1.360625 3.28875 0.72125 3.5775 0.0625 3.875 C-2.15206079 4.82823451 -2.15206079 4.82823451 -3 7 C-3.99 7 -4.98 7 -6 7 C-6.12375 7.94875 -6.2475 8.8975 -6.375 9.875 C-7 13 -7 13 -9 15 C-8.65290807 6.87804878 -8.65290807 6.87804878 -6.1875 3.5625 C-4.14812696 2.10580497 -2.35485116 0.86344543 0 0 Z " fill="#54210A" transform="translate(13,0)"/>
<path d="M0 0 C0.99 0.33 1.98 0.66 3 1 C2.01 2.485 2.01 2.485 1 4 C0.83286431 6.62531524 0.83286431 6.62531524 1 9 C0.01 9.33 -0.98 9.66 -2 10 C-3.20882096 12.00016466 -3.20882096 12.00016466 -4 14 C-4.66 13.34 -5.32 12.68 -6 12 C-6 10.68 -6 9.36 -6 8 C-5.34 8 -4.68 8 -4 8 C-3.67 7.01 -3.34 6.02 -3 5 C-2.34 5 -1.68 5 -1 5 C-0.67 3.35 -0.34 1.7 0 0 Z " fill="#4F200E" transform="translate(14,9)"/>
<path d="M0 0 C-0.2165625 1.2684375 -0.2165625 1.2684375 -0.4375 2.5625 C-1.0058797 6.03593149 -1.51202393 9.51445662 -2 13 C-2.66 13 -3.32 13 -4 13 C-5.44282367 4.8645605 -5.44282367 4.8645605 -3.6875 1.4375 C-2 0 -2 0 0 0 Z " fill="#AF6237" transform="translate(19,9)"/>
<path d="M0 0 C1.3921875 0.3403125 1.3921875 0.3403125 2.8125 0.6875 C2.4825 1.6775 2.1525 2.6675 1.8125 3.6875 C1.1525 3.6875 0.4925 3.6875 -0.1875 3.6875 C-0.1875 4.3475 -0.1875 5.0075 -0.1875 5.6875 C-1.1775 5.6875 -2.1675 5.6875 -3.1875 5.6875 C-3.1875 5.0275 -3.1875 4.3675 -3.1875 3.6875 C-3.64125 4.1825 -4.095 4.6775 -4.5625 5.1875 C-6.1875 6.6875 -6.1875 6.6875 -8.1875 6.6875 C-4.97117876 -0.48737047 -4.97117876 -0.48737047 0 0 Z " fill="#370F06" transform="translate(18.1875,0.3125)"/>
<path d="M0 0 C0.33 0 0.66 0 1 0 C1.22786458 2.01822917 1.45572917 4.03645833 1.68359375 6.0546875 C1.91292961 8.07404316 1.91292961 8.07404316 3 10 C1.54207116 10.05399736 0.08357288 10.09279177 -1.375 10.125 C-2.18710937 10.14820313 -2.99921875 10.17140625 -3.8359375 10.1953125 C-6 10 -6 10 -8 8 C-5.36 8 -2.72 8 0 8 C0 6.68 0 5.36 0 4 C-0.99 3.67 -1.98 3.34 -3 3 C-2.01 2.67 -1.02 2.34 0 2 C0 1.34 0 0.68 0 0 Z " fill="#370A01" transform="translate(20,22)"/>
<path d="M0 0 C2.09350689 3.4019487 2.17942163 6.05272412 2 10 C0.35 10 -1.3 10 -3 10 C-3.33 8.68 -3.66 7.36 -4 6 C-3.34 6 -2.68 6 -2 6 C-1.67 6.66 -1.34 7.32 -1 8 C-0.67 5.36 -0.34 2.72 0 0 Z " fill="#2B130B" transform="translate(7,22)"/>
<path d="M0 0 C0.33 0.66 0.66 1.32 1 2 C2.485 2.2475 2.485 2.2475 4 2.5 C5.485 2.7475 5.485 2.7475 7 3 C7.33 3.66 7.66 4.32 8 5 C5.125 5.625 5.125 5.625 2 6 C1.34 5.34 0.68 4.68 0 4 C0 2.68 0 1.36 0 0 Z " fill="#A76739" transform="translate(9,24)"/>
<path d="M0 0 C0 1.98 0 3.96 0 6 C-0.99 6.495 -0.99 6.495 -2 7 C-2 6.01 -2 5.02 -2 4 C-2.66 4 -3.32 4 -4 4 C-4 3.01 -4 2.02 -4 1 C-2 0 -2 0 0 0 Z " fill="#0E0402" transform="translate(7,24)"/>
<path d="M0 0 C0.66 0 1.32 0 2 0 C2.5625 1.9375 2.5625 1.9375 3 4 C2 5 2 5 -0.5625 5.0625 C-1.7690625 5.0315625 -1.7690625 5.0315625 -3 5 C-3 4.34 -3 3.68 -3 3 C-2.34 3 -1.68 3 -1 3 C-0.67 2.01 -0.34 1.02 0 0 Z " fill="#1E0200" transform="translate(13,4)"/>
<path d="M0 0 C1.32 0 2.64 0 4 0 C3.67 1.65 3.34 3.3 3 5 C2.34 5 1.68 5 1 5 C0.67 3.35 0.34 1.7 0 0 Z " fill="#7C3111" transform="translate(17,18)"/>
<path d="" fill="#150000" transform="translate(0,0)"/>
</svg>
